<svg width="37" height="37" viewBox="0 0 37 37" fill="none" xmlns="http://www.w3.org/2000/svg">
<path fill-rule="evenodd" clip-rule="evenodd" d="M12.3335 10.7915L10.7918 3.08325H3.0835V6.16654H8.30975L12.3335 26.2083H30.8335L33.9168 10.7915H12.3335Z" fill="white"/>
<path d="M18.5 31.6042C18.5 32.8814 17.4647 33.9167 16.1875 33.9167C14.9103 33.9167 13.875 32.8814 13.875 31.6042C13.875 30.3271 14.9103 29.2917 16.1875 29.2917C17.4647 29.2917 18.5 30.3271 18.5 31.6042ZM29.2916 31.6042C29.2916 32.8814 28.2563 33.9167 26.9791 33.9167C25.702 33.9167 24.6666 32.8814 24.6666 31.6042C24.6666 30.3271 25.702 29.2917 26.9791 29.2917C28.2563 29.2917 29.2916 30.3271 29.2916 31.6042Z" fill="white"/>
</svg>
