<svg width="13" height="12" viewBox="0 0 13 12" fill="none" xmlns="http://www.w3.org/2000/svg">
<path d="M11.8672 0.000854492C12.0347 0.000854492 12.196 0.067022 12.3145 0.185425C12.4329 0.303853 12.499 0.465208 12.499 0.63269V9.47351C12.499 9.64083 12.4327 9.80144 12.3145 9.9198C12.196 10.0382 12.0347 10.1044 11.8672 10.1044C11.6999 10.1043 11.5392 10.0381 11.4209 9.9198C11.3026 9.80144 11.2364 9.64087 11.2363 9.47351V1.26355H3.05859C2.89111 1.26355 2.72976 1.19741 2.61133 1.07898C2.49307 0.960646 2.42685 0.799981 2.42676 0.63269C2.42676 0.465208 2.4929 0.303853 2.61133 0.185425C2.72976 0.0669965 2.89111 0.000854492 3.05859 0.000854492H11.8672Z" fill="white"/>
<path d="M11.8672 0.000854492C12.0347 0.000854492 12.196 0.067022 12.3145 0.185425C12.4329 0.303853 12.499 0.465208 12.499 0.63269V9.47351C12.499 9.64083 12.4327 9.80144 12.3145 9.9198C12.196 10.0382 12.0347 10.1044 11.8672 10.1044C11.6999 10.1043 11.5392 10.0381 11.4209 9.9198C11.3026 9.80144 11.2364 9.64087 11.2363 9.47351V1.26355H3.05859C2.89111 1.26355 2.72976 1.19741 2.61133 1.07898C2.49307 0.960646 2.42685 0.799981 2.42676 0.63269C2.42676 0.465208 2.4929 0.303853 2.61133 0.185425C2.72976 0.0669965 2.89111 0.000854492 3.05859 0.000854492H11.8672Z" stroke="white"/>
<path d="M11.8682 0C12.0357 0.000120861 12.196 0.0670767 12.3145 0.185547C12.4329 0.304017 12.4999 0.464306 12.5 0.631836C12.5 0.79953 12.433 0.960524 12.3145 1.0791L1.5791 11.8145C1.52039 11.8732 1.45074 11.9204 1.37402 11.9521C1.2974 11.9838 1.21476 12 1.13184 12C1.04909 11.9999 0.967096 11.9838 0.890625 11.9521C0.813912 11.9204 0.744261 11.8732 0.685547 11.8145C0.626833 11.7557 0.579627 11.6861 0.547852 11.6094C0.516231 11.5329 0.50006 11.4509 0.5 11.3682C0.5 11.2852 0.516158 11.2026 0.547852 11.126C0.579627 11.0493 0.626833 10.9796 0.685547 10.9209L11.4209 0.185547C11.5395 0.066969 11.7005 0 11.8682 0Z" fill="white"/>
<path d="M11.8682 0C12.0357 0.000120861 12.196 0.0670767 12.3145 0.185547C12.4329 0.304017 12.4999 0.464306 12.5 0.631836C12.5 0.79953 12.433 0.960524 12.3145 1.0791L1.5791 11.8145C1.52039 11.8732 1.45074 11.9204 1.37402 11.9521C1.2974 11.9838 1.21476 12 1.13184 12C1.04909 11.9999 0.967096 11.9838 0.890625 11.9521C0.813912 11.9204 0.744261 11.8732 0.685547 11.8145C0.626833 11.7557 0.579627 11.6861 0.547852 11.6094C0.516231 11.5329 0.50006 11.4509 0.5 11.3682C0.5 11.2852 0.516158 11.2026 0.547852 11.126C0.579627 11.0493 0.626833 10.9796 0.685547 10.9209L11.4209 0.185547C11.5395 0.066969 11.7005 0 11.8682 0Z" stroke="white"/>
</svg>
