<svg width="25" height="24" viewBox="0 0 25 24" fill="none" xmlns="http://www.w3.org/2000/svg">
<path d="M3.75 11C3.75 7.229 3.75 5.343 4.922 4.172C6.094 3.001 7.979 3 11.75 3H13.75C17.521 3 19.407 3 20.578 4.172C21.749 5.344 21.75 7.229 21.75 11V13C21.75 16.771 21.75 18.657 20.578 19.828C19.406 20.999 17.521 21 13.75 21H11.75C7.979 21 6.093 21 4.922 19.828C3.751 18.656 3.75 16.771 3.75 13V11Z" stroke="white" stroke-width="2"/>
<path d="M17.25 9C18.0784 9 18.75 8.32843 18.75 7.5C18.75 6.67157 18.0784 6 17.25 6C16.4216 6 15.75 6.67157 15.75 7.5C15.75 8.32843 16.4216 9 17.25 9Z" fill="white"/>
<path d="M12.75 15C14.4069 15 15.75 13.6569 15.75 12C15.75 10.3431 14.4069 9 12.75 9C11.0931 9 9.75 10.3431 9.75 12C9.75 13.6569 11.0931 15 12.75 15Z" stroke="white" stroke-width="2"/>
</svg>
